<svg xmlns="http://www.w3.org/2000/svg" viewBox="0 0 200 200" width="200" height="200">
  <defs>
    <radialGradient id="bg3" cx="50%" cy="50%" r="50%">
      <stop offset="0%" stop-color="#0d2818"/>
      <stop offset="100%" stop-color="#051209"/>
    </radialGradient>
  </defs>
  <rect width="200" height="200" rx="14" fill="url(#bg3)"/>
  <rect x="8" y="8" width="184" height="184" rx="10" fill="none" stroke="#6db33f" stroke-width="1.5" opacity="0.5"/>

  <!-- Spring leaf shape -->
  <g transform="translate(100,78)">
    <!-- Leaf outline -->
    <path d="M0,-36 C20,-30 36,-10 30,10 C24,28 8,36 0,36 C-8,36 -24,28 -30,10 C-36,-10 -20,-30 0,-36 Z"
      fill="none" stroke="#6db33f" stroke-width="2.5" opacity="0.9"/>
    <!-- Inner vein -->
    <line x1="0" y1="-30" x2="0" y2="30" stroke="#6db33f" stroke-width="1.5" opacity="0.6"/>
    <line x1="0" y1="-10" x2="14" y2="6" stroke="#6db33f" stroke-width="1" opacity="0.5"/>
    <line x1="0" y1="-10" x2="-14" y2="6" stroke="#6db33f" stroke-width="1" opacity="0.5"/>
    <!-- Center dot -->
    <circle cx="0" cy="0" r="5" fill="#6db33f"/>
  </g>

  <text x="100" y="133" font-family="Georgia,serif" font-size="13" font-weight="bold" fill="#ffffff" text-anchor="middle">JakartaEE</text>
  <text x="100" y="150" font-family="Georgia,serif" font-size="11" fill="#6db33f" text-anchor="middle">Spring Framework</text>
  <text x="100" y="172" font-family="monospace" font-size="8" fill="#555" text-anchor="middle">MLIAEdu · Active</text>
</svg>
